<?xml version="1.0" standalone="no"?><svg width="360" height="180" viewBox="300 330 360 180" xmlns="http://www.w3.org/2000/svg" xmlns:xlink="http://www.w3.org/1999/xlink"><style>line.bg { stroke: rgba(3, 148, 172, 0.7); stroke-width: 1; }circle.bg { fill: rgba(100, 220, 240, 0.7); }line.bg-sub { stroke: rgba(140, 240, 240, 0.5); stroke-width: 1; }g.u rect, g.u path, g.u circle { fill: none; stroke-width: 2; stroke-linejoin: round; }pattern line { vector-effect: non-scaling-stroke; }.zoomed-out pattern line { vector-effect: none; }text { stroke-width: 0; font-family: sans-serif; }text tspan { white-space: pre; }.ui-dark { background: rgb(51, 51, 51); }.ui-dark line.bg { stroke: rgba(172, 232, 242, 0.57); stroke-width: 1; }.ui-dark circle.bg { fill: rgba(100, 220, 240, 0.3); }.ui-dark line.bg-sub { stroke: rgba(140, 240, 240, 0.1); stroke-width: 1; }rect.marquee { fill: rgba(234, 255, 231, 0.3); stroke: rgb(98, 137, 95); stroke-width: 1; stroke-dasharray: 4; vector-effect: non-scaling-stroke; }rect.highlight { fill: blue; opacity: 0.5; }.bg rect { stroke: rgba(3, 148, 172, 0.7); stroke-width: 1; }</style><defs class="ic"></defs><defs><marker id="arrowhead" viewBox="0 0 15 15" refX="5" refY="5" markerWidth="5" markerHeight="5" orient="auto-start-reverse"><path stroke="context-stroke" fill="context-stroke" d="M 0 0 L 10 5 L 0 10 z"></path></marker></defs><defs xmlns="http://www.w3.org/2000/svg"><pattern id="pattern_bg" viewBox="0 0 60 60" width="0.043509789702683106" height="0.08130081300813008" patternTransform="scale(0.5 0.5) translate(689.5 369)"><line class="bg" x1="0" y1="0" x2="60" y2="0"/><line class="bg" x1="0" y1="0" y2="60" x2="0"/><line class="bg-sub" x1="0" y1="15" x2="60" y2="15"/><line class="bg-sub" y1="0" x1="15" y2="60" x2="15"/><line class="bg-sub" x1="0" y1="30" x2="60" y2="30"/><line class="bg-sub" y1="0" x1="30" y2="60" x2="30"/><line class="bg-sub" x1="0" y1="45" x2="60" y2="45"/><line class="bg-sub" y1="0" x1="45" y2="60" x2="45"/></pattern></defs>
<g xmlns="http://www.w3.org/2000/svg" class="bg"><rect x="-689.5" y="-369" width="2758" height="1476" style="fill: url(&quot;#pattern_bg&quot;);"/></g><g xmlns="http://www.w3.org/2000/svg" class="u current" data-layer="Layer 1" style="visibility: visible;"><path d="M 360 480 L 360 360 L 390 420 L 420 360 L 420 480" class="" stroke="rgba(41, 173, 255, 1)" id="vzaf7uwi" style="fill: rgba(0, 0, 0, 0); stroke-width: 2; stroke-linejoin: round;" data-mut=""/><path d="M 450 480 L 480 360 L 510 480" class="" stroke="rgba(41, 173, 255, 1)" id="0kclmc9x" style="fill: rgba(0, 0, 0, 0); stroke-width: 2; stroke-linejoin: round;" data-mut=""/><path d="M 461 435 L 498.48332962798264 435" class="" stroke="rgba(41, 173, 255, 1)" id="1ac7hvl6" style="fill: rgba(0, 0, 0, 0); stroke-width: 2; stroke-linejoin: round;" data-mut=""/><path d="M 540 480 L 540 360 L 585 360 L 600 375 L 600 405 L 585 420 L 600 435 L 600 465 L 585 480 Z" class="" stroke="rgba(41, 173, 255, 1)" id="ciq1kb0h" style="fill: rgba(0, 0, 0, 0); stroke-width: 2; stroke-linejoin: round;" data-mut=""/><path d="M 540 420 L 585 420" class="" stroke="rgba(41, 173, 255, 1)" id="it7ih80f" style="fill: rgba(0, 0, 0, 0); stroke-width: 2; stroke-linejoin: round;" data-mut=""/></g></svg>