<?xml version="1.0" standalone="no"?><svg width="360" height="183" viewBox="300 509.5 360 183" xmlns="http://www.w3.org/2000/svg" xmlns:xlink="http://www.w3.org/1999/xlink"><style>line.bg { stroke: rgba(3, 148, 172, 0.7); stroke-width: 1; }circle.bg { fill: rgba(100, 220, 240, 0.7); }line.bg-sub { stroke: rgba(140, 240, 240, 0.5); stroke-width: 1; }g.u rect, g.u path, g.u circle { fill: none; stroke-width: 2; stroke-linejoin: round; }pattern line { vector-effect: non-scaling-stroke; }.zoomed-out pattern line { vector-effect: none; }text { stroke-width: 0; font-family: sans-serif; }text tspan { white-space: pre; }.ui-dark { background: rgb(51, 51, 51); }.ui-dark line.bg { stroke: rgba(172, 232, 242, 0.57); stroke-width: 1; }.ui-dark circle.bg { fill: rgba(100, 220, 240, 0.3); }.ui-dark line.bg-sub { stroke: rgba(140, 240, 240, 0.1); stroke-width: 1; }rect.marquee { fill: rgba(234, 255, 231, 0.3); stroke: rgb(98, 137, 95); stroke-width: 1; stroke-dasharray: 4; vector-effect: non-scaling-stroke; }rect.highlight { fill: blue; opacity: 0.5; }.bg rect { stroke: rgba(3, 148, 172, 0.7); stroke-width: 1; }</style><defs class="ic"></defs><defs><marker id="arrowhead" viewBox="0 0 15 15" refX="5" refY="5" markerWidth="5" markerHeight="5" orient="auto-start-reverse"><path stroke="context-stroke" fill="context-stroke" d="M 0 0 L 10 5 L 0 10 z"></path></marker></defs><defs xmlns="http://www.w3.org/2000/svg"><pattern id="pattern_bg" viewBox="0 0 60 60" width="0.043509789702683106" height="0.08130081300813008" patternTransform="scale(0.5 0.5) translate(656.6784990910634 359.4656289120358)"><line class="bg" x1="0" y1="0" x2="60" y2="0"/><line class="bg" x1="0" y1="0" y2="60" x2="0"/><line class="bg-sub" x1="0" y1="15" x2="60" y2="15"/><line class="bg-sub" y1="0" x1="15" y2="60" x2="15"/><line class="bg-sub" x1="0" y1="30" x2="60" y2="30"/><line class="bg-sub" y1="0" x1="30" y2="60" x2="30"/><line class="bg-sub" x1="0" y1="45" x2="60" y2="45"/><line class="bg-sub" y1="0" x1="45" y2="60" x2="45"/></pattern></defs>
<g xmlns="http://www.w3.org/2000/svg" class="bg"><rect x="-656.6784990910634" y="-359.4656289120358" width="2758" height="1476" style="fill: url(&quot;#pattern_bg&quot;);"/></g><g xmlns="http://www.w3.org/2000/svg" class="u current" data-layer="Layer 1" style="visibility: visible;"><path d="M 360 660 L 360 540" class="" stroke="rgba(41, 173, 255, 1)" id="kwxhj3wr" style="fill: rgba(0, 0, 0, 0); stroke-width: 2; stroke-linejoin: round;"/><path d="M 360 540 Q 390 555, 390 600 Q 390 555, 420 540 Q 390 660, 420 660" class="" stroke="rgba(41, 173, 255, 1)" id="1iw835i9" style="fill: rgba(0, 0, 0, 0); stroke-width: 2; stroke-linejoin: round;"/><path d="M 450 660 L 480 540 L 510 660" class="" stroke="rgba(41, 173, 255, 1)" id="pd6kc10t" style="fill: rgba(0, 0, 0, 0); stroke-width: 2; stroke-linejoin: round;" data-mut=""/><path d="M 480 585 A 30 30 0 0 1 510 615" transform="translate(1 0) matrix(1.47541 0 0 1.47541 -243.197 -263.115)" data-mut="" style="fill: rgba(0, 0, 0, 0); stroke: rgb(41, 173, 255); stroke-width: 2;" id="g6yk8vha"/><path d="M 540 660 L 540 540 L 570 540" class="" stroke="rgba(41, 173, 255, 1)" id="ha5p0chq" style="fill: rgba(0, 0, 0, 0); stroke-width: 2; stroke-linejoin: round;" data-mut=""/><path d="M 540 660 L 570 660" class="" stroke="rgba(41, 173, 255, 1)" id="pus49iwr" style="fill: rgba(0, 0, 0, 0); stroke-width: 2; stroke-linejoin: round;"/><path d="M 540 600 L 570 600" class="" stroke="rgba(41, 173, 255, 1)" id="3s5j0swm" style="fill: rgba(0, 0, 0, 0); stroke-width: 2; stroke-linejoin: round;"/><path d="M 570 540 A 30 30 0 0 1 600 570" transform="null" data-mut="" style="fill: rgba(0, 0, 0, 0); stroke: rgb(41, 173, 255); stroke-width: 2;" id="4lose5jr"/><path d="M 600 570 A 30 30 0 0 1 570 600" transform="null" data-mut="" style="fill: rgba(0, 0, 0, 0); stroke: rgb(41, 173, 255); stroke-width: 2;" id="9iu9rv3b"/><path d="M 570 600 A 30 30 0 0 1 600 630" transform="null" data-mut="" style="fill: rgba(0, 0, 0, 0); stroke: rgb(41, 173, 255); stroke-width: 2;" id="6svnax0a"/><path d="M 600 630 A 30 30 0 0 1 570 660" transform="null" data-mut="" style="fill: rgba(0, 0, 0, 0); stroke: rgb(41, 173, 255); stroke-width: 2;" id="ulu9i2rz"/></g></svg>